<?xml version="1.0" encoding="UTF-8"?>
<svg version="1.1" xmlns="http://www.w3.org/2000/svg" viewBox="0 0 611 611" width="100" height="100">
<path d="M0 0 C0.91346191 0.36279053 1.82692383 0.72558105 2.76806641 1.09936523 C17.22326935 7.00536287 28.79832874 15.41683983 35.6336937 29.82763195 C40.01089212 41.7529927 39.02799074 54.36534593 38.95410156 66.88208008 C38.95297208 69.56378286 38.95343323 72.24544184 38.95587158 74.92713928 C38.95795908 80.67992971 38.94551355 86.4325373 38.92292023 92.18528175 C38.89027649 100.50253637 38.87998063 108.81970346 38.87496826 117.13701519 C38.86623491 130.63444357 38.8396728 144.13177473 38.80175781 157.62915039 C38.7649868 170.73298662 38.73670002 183.83679635 38.71972656 196.94067383 C38.71815022 198.15424492 38.71815022 198.15424492 38.71654204 199.39233259 C38.71132152 203.45148156 38.70626677 207.51063071 38.70129442 211.56977999 C38.65989347 245.19242381 38.58949878 278.81494994 38.5 312.4375 C37.84 312.4375 37.18 312.4375 36.5 312.4375 C36.335 313.448125 36.17 314.45875 36 315.5 C34.32883431 321.41520519 29.17537595 324.8181935 24.125 327.875 C9.36042268 331.038838 -7.01628348 322.98419851 -19.3203125 315.30078125 C-23.42843241 312.23582268 -26.09022814 307.98737855 -28.8984375 303.78125 C-30.4997696 301.32633404 -30.4997696 301.32633404 -32.75 298.9375 C-37.73047436 291.82253663 -37.93882283 283.24878835 -37.90113831 274.85545349 C-37.90793498 273.73028244 -37.91473164 272.60511138 -37.92173427 271.44584423 C-37.94063692 267.69744325 -37.93827389 263.94937094 -37.93579102 260.20092773 C-37.9447726 257.50471802 -37.9548976 254.8085335 -37.96632385 252.11233521 C-37.99115897 245.56273615 -37.99948439 239.01321812 -38.00116099 232.46357589 C-38.00258982 227.13874639 -38.00877068 221.81394348 -38.01826286 216.48912239 C-38.04465404 201.37596103 -38.05852463 186.26286339 -38.05627144 171.14967882 C-38.05609164 169.92957096 -38.05609164 169.92957096 -38.0559082 168.68481445 C-38.05578556 167.8704112 -38.05566292 167.05600795 -38.05553656 166.21692581 C-38.05431637 153.00918471 -38.08305255 139.80169984 -38.1253233 126.59403288 C-38.16843345 113.01655557 -38.18913306 99.43920324 -38.18654197 85.86165577 C-38.18554705 78.24509247 -38.19374545 70.62879819 -38.22607613 63.01229668 C-38.25341558 56.53047427 -38.25989703 50.04904299 -38.23954786 43.56718784 C-38.22976554 40.26247812 -38.23280353 36.95867271 -38.2556076 33.65400505 C-38.27876117 30.06618863 -38.2648427 26.48033694 -38.24171448 22.89256287 C-38.25714517 21.85558886 -38.27257586 20.81861484 -38.28847414 19.75021738 C-38.1850448 12.48063278 -36.21998778 7.96678164 -31.5 2.4375 C-29.11328125 0.24609375 -29.11328125 0.24609375 -26.8125 -1.125 C-25.69294922 -1.83849609 -25.69294922 -1.83849609 -24.55078125 -2.56640625 C-15.97638357 -5.36598552 -8.08572989 -3.30998751 0 0 Z " fill="#03213F" transform="translate(222.5,187.5625)"/>
<path d="M0 0 C0.87293701 0.31509521 1.74587402 0.63019043 2.64526367 0.95483398 C16.31786187 6.05182461 27.89598519 12.95724917 35.1875 25.9375 C35.88124066 27.5930803 36.5450925 29.2613333 37.1875 30.9375 C37.69608708 32.00315721 38.20467417 33.06881441 38.72867298 34.16676426 C40.29178091 37.81859591 40.55756392 40.93336854 40.54826355 44.9294281 C40.55082682 45.59694456 40.5533901 46.26446101 40.55603105 46.95220524 C40.56093823 49.16947996 40.54452798 51.38606043 40.52807617 53.60327148 C40.52722923 55.20034265 40.52770635 56.79741498 40.52940369 58.39448547 C40.53026245 62.71635027 40.51265598 67.03796396 40.49168181 71.35977054 C40.47289519 75.88144063 40.47116301 80.40311684 40.46760559 84.92481995 C40.45829096 93.48113989 40.43368505 102.03734448 40.40355712 110.59361368 C40.36999501 120.3372261 40.35352255 130.08084411 40.33847082 139.82449996 C40.30713498 159.86223096 40.25438579 179.8998582 40.1875 199.9375 C37.91965399 197.66965399 37.31756637 195.91637226 36.1875 192.9375 C33.57031019 187.06030183 31.14930376 182.19047465 26.1875 177.9375 C25.66285156 177.44636719 25.13820313 176.95523438 24.59765625 176.44921875 C18.15785704 170.56432287 10.44218333 167.51301034 2.4375 164.25 C1.32568359 163.78883789 1.32568359 163.78883789 0.19140625 163.31835938 C-6.63014607 160.51993082 -13.03140268 158.35855737 -20.34375 160.7734375 C-26.00350242 163.31350711 -29.366653 166.17205176 -32.75390625 171.36328125 C-33.10324219 171.88277344 -33.45257813 172.40226563 -33.8125 172.9375 C-34.1425 172.9375 -34.4725 172.9375 -34.8125 172.9375 C-34.85923733 152.45776367 -34.89449736 131.97803817 -34.91612434 111.49825954 C-34.92643339 101.98897455 -34.94048664 92.4797227 -34.96337891 82.97045898 C-34.98332413 74.68141456 -34.99621914 66.39239414 -35.00067699 58.10332638 C-35.00328244 53.71504275 -35.00939871 49.32682781 -35.02396011 44.93856621 C-35.03756189 40.80591256 -35.04171739 36.67335574 -35.03871536 32.54068184 C-35.03926436 31.02620034 -35.04322634 29.51171552 -35.05091095 27.99725342 C-35.060913 25.92390883 -35.05844998 23.85092621 -35.05300903 21.77757263 C-35.05485262 20.61887885 -35.05669621 19.46018507 -35.05859566 18.26637936 C-34.50964619 10.84086618 -32.28083492 5.8359641 -26.8125 0.9375 C-18.13427085 -5.27428508 -9.44773304 -3.48691417 0 0 Z " fill="#02203E" transform="translate(388.8125,101.0625)"/>
<path d="M0 0 C0.73871338 0.27215332 1.47742676 0.54430664 2.23852539 0.82470703 C16.29336375 6.11719635 29.43581053 12.61147455 36.75 26.375 C37.43863087 28.0327122 38.10282111 29.70066977 38.75 31.375 C39.25859055 32.35221512 39.76718109 33.32943024 40.29118347 34.33625793 C42.41808662 39.32161932 42.16142506 44.32161645 42.12231445 49.6628418 C42.12596512 50.77909943 42.12961578 51.89535706 42.13337708 53.04544067 C42.14145957 56.72185649 42.12789363 60.39782847 42.11328125 64.07421875 C42.11276248 66.63296 42.11328083 69.19170165 42.11479187 71.7504425 C42.11470226 77.10591085 42.10463293 82.46122433 42.08618164 87.81665039 C42.06498454 94.00439864 42.06151218 100.19196129 42.0677436 106.37973851 C42.07344009 112.34222275 42.067685 118.30465117 42.05657005 124.2671299 C42.05271734 126.80091908 42.05157013 129.33471386 42.0531559 131.86850548 C42.05352597 135.40422647 42.04092337 138.9396634 42.0246582 142.4753418 C42.02713562 143.52529831 42.02961304 144.57525482 42.03216553 145.6570282 C42.02508072 146.62003845 42.01799591 147.58304871 42.01069641 148.57524109 C42.00761711 149.82814705 42.00761711 149.82814705 42.00447559 151.10636425 C41.72613238 153.58777855 40.99290403 155.22704669 39.75 157.375 C39.09 157.375 38.43 157.375 37.75 157.375 C37.54375 157.931875 37.3375 158.48875 37.125 159.0625 C34.69471007 163.1498058 31.23614354 165.87961882 26.75 167.375 C12.84753651 169.8614437 -1.52474713 163.35770391 -13.19384766 156.17919922 C-16.34010545 153.94162201 -18.83834267 151.37285975 -21.25 148.375 C-21.90613281 147.57191406 -22.56226563 146.76882813 -23.23828125 145.94140625 C-29.34231624 137.84060619 -33.31410427 128.81466175 -33.4173584 118.58233643 C-33.42884918 117.64608429 -33.44033997 116.70983215 -33.45217896 115.74520874 C-33.45958099 114.73004181 -33.46698303 113.71487488 -33.47460938 112.66894531 C-33.48599945 111.59027191 -33.49738953 110.51159851 -33.50912476 109.40023804 C-33.61953006 98.14738989 -33.66715244 86.89390026 -33.70996094 75.640625 C-33.73091458 70.30369768 -33.77406187 64.96750828 -33.83300781 59.63085938 C-33.90411274 53.18000688 -33.94079484 46.72981158 -33.95307922 40.27858734 C-33.96347308 37.82420599 -33.98588088 35.36984427 -34.02067566 32.91568756 C-34.06693299 29.47589148 -34.06887534 26.03867155 -34.06054688 22.59863281 C-34.08414276 21.59156281 -34.10773865 20.5844928 -34.13204956 19.54690552 C-34.04368907 11.98223454 -31.55062342 7.70926497 -26.25 2.375 C-23.66015625 0.40234375 -23.66015625 0.40234375 -21.3125 -0.6875 C-20.15427734 -1.26177734 -20.15427734 -1.26177734 -18.97265625 -1.84765625 C-12.11331785 -3.80606133 -6.45965189 -2.43926732 0 0 Z " fill="#FDC402" transform="translate(387.25,262.625)"/>
<path d="M0 0 C1.02867187 -0.02320313 1.02867187 -0.02320313 2.078125 -0.046875 C7.28211531 -0.00714988 9.86248978 1.52783503 14 4.5 C16.73626234 5.74091062 19.54425951 6.74669957 22.375 7.75 C23.47908203 8.1521875 23.47908203 8.1521875 24.60546875 8.5625 C26.40107475 9.21544764 28.20018805 9.85873683 30 10.5 C30 11.16 30 11.82 30 12.5 C30.72316406 12.73976562 31.44632812 12.97953125 32.19140625 13.2265625 C40.5803321 17.03016449 45.92934017 25.23911477 49.84375 33.25 C53.09373512 42.38509331 53.30750364 51.390123 53.30078125 61.01171875 C53.30467839 62.39313381 53.30901512 63.7745477 53.31376648 65.15596008 C53.32117717 68.0328055 53.32097339 70.90952803 53.31567383 73.78637695 C53.30985881 77.45799998 53.32688357 81.12912187 53.3500185 84.80066204 C53.36479644 87.64639686 53.36562252 90.4920117 53.36250877 93.33777809 C53.36326536 95.34456736 53.37708741 97.35133814 53.39118958 99.358078 C53.3438912 108.68671725 52.14466956 114.96666965 45.72265625 121.98828125 C40.7490123 126.35290757 34.92759748 126.9429174 28.515625 126.7265625 C21.88994316 126.1298396 15.98946436 124.38381617 10 121.5 C8.62134766 120.88318359 8.62134766 120.88318359 7.21484375 120.25390625 C-6.26221264 113.966885 -15.09725379 104.80291285 -20.58300781 90.78369141 C-22.82114427 83.8833012 -22.43176156 76.6910852 -22.3984375 69.51953125 C-22.40046218 67.97734947 -22.40337689 66.43516864 -22.40713501 64.89299011 C-22.41153588 61.67636918 -22.40519741 58.45999971 -22.39111328 55.2434082 C-22.37397907 51.13109609 -22.38390314 47.01936967 -22.40183067 42.90707874 C-22.41269241 39.72852699 -22.40921201 36.55011324 -22.4014473 33.37155724 C-22.39945413 31.8553733 -22.40187336 30.33917661 -22.40888596 28.82300758 C-22.41654514 26.70303931 -22.4048374 24.58401003 -22.38818359 22.46411133 C-22.38579681 21.26103836 -22.38341003 20.05796539 -22.38095093 18.81843567 C-21.65719464 12.5138476 -18.65839783 8.61672366 -14 4.5 C-9.36944721 0.82538856 -5.79772229 -0.13077569 0 0 Z " fill="#065275" transform="translate(292,232.5)"/>
</svg>
